<?xml version="1.0" encoding="UTF-8" standalone="no"?>
<!-- Text set in Karla (SIL OFL); rasterize with Karla available to fontconfig. -->
<svg
   width="1024"
   height="500"
   viewBox="0 0 1024 500"
   version="1.1"
   id="svg1"
   xmlns="http://www.w3.org/2000/svg"
   xmlns:svg="http://www.w3.org/2000/svg"
   xmlns:rdf="http://www.w3.org/1999/02/22-rdf-syntax-ns#"
   xmlns:cc="http://creativecommons.org/ns#"
   xmlns:dc="http://purl.org/dc/elements/1.1/">
  <title
     id="title1">Fossling Piano Feature Graphic</title>
  <rect
     id="background"
     width="1024"
     height="500"
     x="0"
     y="0"
     fill="#0c1a4b" />
  <g
     id="glyph"
     transform="translate(113,106) scale(6)">
    <rect
       id="keyboard-frame"
       x="10"
       y="13"
       width="28"
       height="22"
       rx="2.5"
       fill="none"
       stroke="#ffffff"
       stroke-width="3"
       stroke-linecap="round"
       stroke-miterlimit="2" />
    <path
       id="key-dividers"
       d="M 17,14 V 34 M 24,14 V 34 M 31,14 V 34"
       fill="none"
       stroke="#ffffff"
       stroke-width="2" />
    <path
       id="black-keys"
       d="M 14.75,14 h 4.5 v 7.5 a 1,1 0 0 1 -1,1 h -2.5 a 1,1 0 0 1 -1,-1 z M 21.75,14 h 4.5 v 7.5 a 1,1 0 0 1 -1,1 h -2.5 a 1,1 0 0 1 -1,-1 z"
       fill="#ffffff"
       stroke="none" />
  </g>
  <text
     id="wordmark-collection"
     x="472"
     y="232"
     font-family="Karla"
     font-weight="500"
     font-size="92"
     fill="#ffffff">Fossling</text>
  <text
     id="wordmark-function"
     x="472"
     y="342"
     font-family="Karla"
     font-weight="800"
     font-size="92"
     fill="#ffffff">Piano</text>
  <metadata
     id="metadata1">
    <rdf:RDF>
      <cc:Work
         rdf:about="">
        <dc:publisher>
          <cc:Agent>
            <dc:title>Inspired Beings EURL</dc:title>
          </cc:Agent>
        </dc:publisher>
        <dc:date>2026-07-26</dc:date>
        <dc:title>Fossling Piano Feature Graphic</dc:title>
        <dc:rights>
          <cc:Agent>
            <dc:title>© Inspired Beings EURL. Licensed under CC BY-SA 4.0.</dc:title>
          </cc:Agent>
        </dc:rights>
        <dc:creator>
          <cc:Agent>
            <dc:title>Ivan Gabriele</dc:title>
          </cc:Agent>
        </dc:creator>
        <cc:license
           rdf:resource="http://creativecommons.org/licenses/by-sa/4.0/" />
      </cc:Work>
    </rdf:RDF>
  </metadata>
</svg>
